<svg enable-background="new 0 0 32 32" height="512" viewBox="0 0 32 32" width="512" xmlns="http://www.w3.org/2000/svg"><g id="Layer_1"><path d="m18.8281 16 9.5859-9.5859c.7813-.7808.7813-2.0474 0-2.8281-.7803-.7813-2.0479-.7813-2.8281 0l-9.5859 9.5859-9.5859-9.586c-.7803-.7813-2.0479-.7813-2.8281 0-.7813.7808-.7813 2.0474 0 2.8281l9.5859 9.586-9.5859 9.5859c-.7757.7757-.7757 2.0524 0 2.8281s2.0524.7757 2.8281 0l9.5859-9.5859 9.5859 9.5859c.7757.7757 2.0524.7757 2.8281 0s.7757-2.0524 0-2.8281z" fill="rgb(0,0,0)"/></g></svg>