<svg id="Capa_1" enable-background="new 0 0 512 512" height="512" viewBox="0 0 512 512" width="512" xmlns="http://www.w3.org/2000/svg"><path d="m354.667 256c0 11.046-8.954 20-20 20h-58.667v58.667c0 11.046-8.954 20-20 20s-20-8.954-20-20v-58.667h-58.667c-11.046 0-20-8.954-20-20s8.954-20 20-20h58.667v-58.667c0-11.046 8.954-20 20-20s20 8.954 20 20v58.667h58.667c11.045 0 20 8.954 20 20zm157.333-107.628v215.256c0 37.396-14.563 72.553-41.005 98.995-4.212 2.972-38.981 49.377-107.367 49.377h-215.256c-68.378 0-103.111-46.374-107.367-49.377-26.442-26.442-41.005-61.6-41.005-98.995v-215.256c0-37.396 14.563-72.553 41.005-98.995 4.212-2.972 38.981-49.377 107.367-49.377h215.256c68.378 0 103.111 46.374 107.367 49.377 26.443 26.442 41.005 61.6 41.005 98.995zm-40 0c0-26.711-10.402-51.823-29.289-70.71-4.382-3.151-28.708-37.662-79.083-37.662h-215.256c-50.105 0-74.849 34.617-79.083 37.662-18.887 18.887-29.289 43.999-29.289 70.71v215.256c0 26.711 10.402 51.823 29.289 70.71 4.382 3.151 28.708 37.662 79.083 37.662h215.256c50.105 0 74.849-34.617 79.083-37.662 18.887-18.887 29.289-43.999 29.289-70.71z"/></svg>