<svg id="Layer_3" height="512" viewBox="0 0 22 22" width="512" xmlns="http://www.w3.org/2000/svg" data-name="Layer 3"><g><path d="m-.0132 8v9a5.0018 5.0018 0 0 0 5 5h12a5.0018 5.0018 0 0 0 5-5v-9zm14.49 6.87-6 3.38a.9472.9472 0 0 1 -.49.13 1.0145 1.0145 0 0 1 -1-1v-6.76a1.0039 1.0039 0 0 1 1.49-.87l6 3.38a.9971.9971 0 0 1 0 1.74z"/><path d="m6.0968 6h-6.11v-1a4.9909 4.9909 0 0 1 2.27-4.19l1.19 1.62z"/><path d="m15.1068 6h-6.52l-2.96-4-1.44-1.93a4.2509 4.2509 0 0 1 .8-.07h5.72l1.46 2z"/><path d="m21.9868 5v1h-4.4l-2.95-4-1.47-2h3.82a5.0018 5.0018 0 0 1 5 5z"/></g></svg>