<svg id="Capa_1" enable-background="new 0 0 426.662 426.662" height="512" viewBox="0 0 426.662 426.662" width="512" xmlns="http://www.w3.org/2000/svg"><g><path d="m420.414 6.246c-8.331-8.328-21.835-8.328-30.165 0l-91.585 91.584v-55.168c0-11.782-9.551-21.333-21.333-21.333s-21.333 9.551-21.333 21.333v106.667c0 11.782 9.551 21.333 21.333 21.333h106.667c11.782 0 21.333-9.551 21.333-21.333s-9.551-21.333-21.333-21.333h-55.168l91.584-91.584c8.328-8.331 8.328-21.835 0-30.166z"/><path d="m21.331 426.662c5.657-.001 11.083-2.25 15.083-6.251l91.584-91.584v55.168c0 11.782 9.551 21.333 21.333 21.333s21.333-9.551 21.333-21.333v-106.666c0-11.782-9.551-21.333-21.333-21.333h-106.667c-11.782 0-21.333 9.551-21.333 21.333s9.551 21.333 21.333 21.333h55.168l-91.584 91.584c-8.33 8.332-8.328 21.84.005 30.17 3.999 3.998 9.423 6.245 15.078 6.246z"/></g></svg>