<svg fill="none" height="512" viewBox="0 0 24 24" width="512" xmlns="http://www.w3.org/2000/svg"><path clip-rule="evenodd" d="m20.5303 3.46967c.2929.29289.2929.76777 0 1.06066l-5.7196 5.71967h3.1893c.4142 0 .75.3358.75.75s-.3358.75-.75.75h-5c-.4142 0-.75-.3358-.75-.75v-5c0-.41421.3358-.75.75-.75s.75.33579.75.75v3.18934l5.7197-5.71967c.2929-.29289.7677-.29289 1.0606 0zm-14.5303 10.28033c-.41421 0-.75-.3358-.75-.75s.33579-.75.75-.75h5c.4142 0 .75.3358.75.75v5c0 .4142-.3358.75-.75.75s-.75-.3358-.75-.75v-3.1893l-5.71967 5.7196c-.29289.2929-.76777.2929-1.06066 0s-.29289-.7677 0-1.0606l5.71967-5.7197z" fill="rgb(0,0,0)" fill-rule="evenodd"/></svg>