<svg height="512" viewBox="0 0 128 128" width="512" xmlns="http://www.w3.org/2000/svg"><g id="icon"><path id="XMLID_221_" d="m122.733 10.606-.002 28.053c0 2.944-2.391 5.338-5.339 5.338-2.949 0-5.337-2.394-5.337-5.34v-15.158l-33.753 33.754c-1.042 1.043-2.41 1.563-3.775 1.563-1.367 0-2.733-.521-3.777-1.563-2.084-2.085-2.084-5.464 0-7.551l33.754-33.755h-15.16c-2.947 0-5.338-2.391-5.338-5.341 0-2.948 2.391-5.339 5.338-5.339h28.053c1.415 0 2.771.563 3.773 1.565.999 1.001 1.563 2.36 1.563 3.774zm-73.601 60.711-33.184 33.186v-15.159c0-2.949-2.388-5.339-5.337-5.339-2.949 0-5.339 2.39-5.339 5.338l-.005 28.052c0 1.415.563 2.772 1.564 3.774 1.004 1.002 2.359 1.564 3.777 1.564h28.052c2.949 0 5.339-2.392 5.339-5.339 0-2.951-2.39-5.342-5.339-5.342h-15.157l33.181-33.182c2.086-2.085 2.086-5.468 0-7.553-2.085-2.081-5.467-2.081-7.552 0z"/></g></svg>